<svg width="24" height="24" viewBox="0 0 24 24" fill="none" xmlns="http://www.w3.org/2000/svg">
<path id="facebook" fill-rule="evenodd" clip-rule="evenodd" d="M12 0C5.373 0 0 5.373 0 12C0 18.627 5.373 24 12 24C18.627 24 24 18.627 24 12C24 5.373 18.627 0 12 0ZM12.0002 1.99969C17.5142 1.99969 22.0002 6.48569 22.0002 11.9997C22.0002 17.5137 17.5142 21.9997 12.0002 21.9997C6.48624 21.9997 2.00024 17.5137 2.00024 11.9997C2.00024 6.48569 6.48624 1.99969 12.0002 1.99969ZM8 9.99984H10V8.30784C10 6.79184 10.798 5.99984 12.596 5.99984H15V8.49984H13.558C13.096 8.49984 13 8.68884 13 9.16684V9.99984H15L14.82 11.9998H13V17.9998H10V11.9998H8V9.99984Z" fill="#5686E1"/>
</svg>
