<svg width="20" height="20" viewBox="0 0 20 20" fill="none" xmlns="http://www.w3.org/2000/svg">
<path d="M14.1561 6.53166C14.7001 6.53166 15.2319 6.34012 15.6842 5.98127C16.1366 5.62241 16.4891 5.11236 16.6973 4.51561C16.9055 3.91886 16.96 3.26221 16.8538 2.6287C16.7477 1.99519 16.4857 1.41327 16.101 0.956541C15.7164 0.499806 15.2263 0.188766 14.6927 0.0627535C14.1591 -0.0632593 13.6061 0.00141502 13.1035 0.248598C12.6009 0.495781 12.1713 0.91437 11.869 1.45143C11.5668 1.9885 11.4055 2.61991 11.4055 3.26583C11.4055 4.13198 11.6953 4.96266 12.2111 5.57512C12.727 6.18758 13.4266 6.53166 14.1561 6.53166ZM14.1561 2.44937C14.2921 2.44937 14.425 2.49726 14.5381 2.58697C14.6512 2.67668 14.7393 2.8042 14.7914 2.95339C14.8434 3.10257 14.8571 3.26674 14.8305 3.42511C14.804 3.58349 14.7385 3.72897 14.6423 3.84315C14.5462 3.95734 14.4236 4.0351 14.2902 4.0666C14.1568 4.0981 14.0186 4.08194 13.8929 4.02014C13.7673 3.95834 13.6599 3.8537 13.5843 3.71943C13.5088 3.58517 13.4684 3.42731 13.4684 3.26583C13.4684 3.04929 13.5409 2.84162 13.6698 2.68851C13.7988 2.53539 13.9737 2.44937 14.1561 2.44937ZM1.47583 5.37229C1.55243 5.06048 1.73022 4.79756 1.97008 4.64138C2.20994 4.48521 2.49224 4.44856 2.75486 4.5395L8.5569 6.54799L9.30128 5.6652C9.39711 5.55102 9.51097 5.46043 9.63635 5.39862C9.76173 5.33681 9.89615 5.30499 10.0319 5.30499C10.1677 5.30499 10.3021 5.33681 10.4275 5.39862C10.5528 5.46043 10.6667 5.55102 10.7625 5.6652L13.2106 8.5728H16.219C16.4926 8.5728 16.755 8.70183 16.9484 8.93151C17.1418 9.16118 17.2505 9.47268 17.2505 9.79749C17.2505 10.1223 17.1418 10.4338 16.9484 10.6635C16.755 10.8931 16.4926 11.0222 16.219 11.0222H12.7808C12.5074 11.0222 12.2453 10.8933 12.0519 10.664L11.6316 10.1649L2.17637 6.89192C2.04632 6.84679 1.92503 6.77168 1.81943 6.67087C1.71383 6.57007 1.626 6.44555 1.56094 6.30443C1.49589 6.16331 1.45489 6.00835 1.44028 5.84841C1.42568 5.68847 1.43776 5.52669 1.47583 5.37229ZM19.5412 18.7346C18.7707 19.3448 17.897 19.7472 16.9815 19.9134C16.066 20.0797 15.1309 20.0058 14.242 19.697L0.802795 15.0545C0.665803 15.0172 0.53667 14.9471 0.423324 14.8484C0.309978 14.7497 0.214809 14.6246 0.143658 14.4807C0.0725067 14.3368 0.0268752 14.1772 0.0095638 14.0116C-0.00774764 13.846 0.00362622 13.6779 0.0429873 13.5177C0.0823484 13.3575 0.148866 13.2086 0.238458 13.08C0.32805 12.9514 0.438827 12.846 0.563988 12.7701C0.689149 12.6942 0.826054 12.6494 0.966302 12.6386C1.10655 12.6278 1.24718 12.6511 1.37956 12.7071L8.24918 15.082L9.43623 13.6726L6.30829 12.6071C6.17574 12.5654 6.05153 12.4927 5.94294 12.3932C5.83434 12.2938 5.74353 12.1697 5.67581 12.0281C5.6081 11.8865 5.56485 11.7303 5.54859 11.5686C5.53232 11.407 5.54337 11.2431 5.58109 11.0865C5.61881 10.93 5.68244 10.784 5.76826 10.657C5.85408 10.53 5.96036 10.4246 6.0809 10.3469C6.20143 10.2693 6.3338 10.2209 6.47025 10.2048C6.60671 10.1886 6.74451 10.2049 6.8756 10.2527L11.6891 11.8856C11.8615 11.9444 12.0179 12.0555 12.143 12.2079C12.2682 12.3604 12.3577 12.549 12.4027 12.755C12.4477 12.9611 12.4468 13.1775 12.3999 13.383C12.353 13.5885 12.2618 13.7759 12.1353 13.9267L10.5081 15.8597L14.8145 17.3497C15.4155 17.5587 16.0478 17.6087 16.6668 17.496C17.2858 17.3833 17.8765 17.1108 18.3972 16.6976C18.6251 16.5174 18.904 16.4522 19.1725 16.5162C19.441 16.5803 19.677 16.7683 19.8288 17.039C19.9805 17.3096 20.0354 17.6408 19.9815 17.9595C19.9276 18.2783 19.7692 18.5586 19.5412 18.7387V18.7346Z" fill="#5686E1"/>
</svg>
