<svg width="24" height="24" viewBox="0 0 24 24" fill="none" xmlns="http://www.w3.org/2000/svg">
<path d="M15.2183 9.15666C15.7624 9.15666 16.2942 8.96512 16.7465 8.60627C17.1988 8.24742 17.5514 7.73736 17.7596 7.14061C17.9677 6.54386 18.0222 5.88721 17.9161 5.2537C17.81 4.62019 17.548 4.03828 17.1633 3.58154C16.7786 3.12481 16.2885 2.81377 15.755 2.68775C15.2214 2.56174 14.6683 2.62642 14.1657 2.8736C13.6631 3.12078 13.2335 3.53937 12.9313 4.07643C12.6291 4.6135 12.4677 5.24491 12.4677 5.89083C12.4677 6.75698 12.7575 7.58766 13.2734 8.20012C13.7892 8.81258 14.4888 9.15666 15.2183 9.15666ZM15.2183 5.07437C15.3543 5.07437 15.4873 5.12226 15.6004 5.21197C15.7135 5.30168 15.8016 5.4292 15.8536 5.57839C15.9057 5.72757 15.9193 5.89174 15.8928 6.05011C15.8662 6.20849 15.8007 6.35397 15.7046 6.46815C15.6084 6.58234 15.4859 6.6601 15.3525 6.6916C15.2191 6.7231 15.0808 6.70694 14.9552 6.64514C14.8295 6.58334 14.7221 6.4787 14.6466 6.34443C14.571 6.21017 14.5307 6.05231 14.5307 5.89083C14.5307 5.67429 14.6031 5.46662 14.7321 5.31351C14.8611 5.16039 15.036 5.07437 15.2183 5.07437ZM2.53809 7.99729C2.61469 7.68548 2.79247 7.42256 3.03234 7.26638C3.2722 7.11021 3.55449 7.07356 3.81712 7.16451L9.61915 9.17299L10.3635 8.2902C10.4594 8.17602 10.5732 8.08543 10.6986 8.02362C10.824 7.96181 10.9584 7.92999 11.0942 7.92999C11.2299 7.92999 11.3643 7.96181 11.4897 8.02362C11.6151 8.08543 11.729 8.17602 11.8248 8.2902L14.2728 11.1978H17.2813C17.5548 11.1978 17.8172 11.3268 18.0106 11.5565C18.2041 11.7862 18.3128 12.0977 18.3128 12.4225C18.3128 12.7473 18.2041 13.0588 18.0106 13.2885C17.8172 13.5181 17.5548 13.6472 17.2813 13.6472H13.843C13.5697 13.6472 13.3075 13.5183 13.1141 13.289L12.6938 12.7899L3.23863 9.51692C3.10858 9.47179 2.98729 9.39668 2.88169 9.29587C2.77609 9.19507 2.68825 9.07055 2.6232 8.92943C2.55814 8.78831 2.51714 8.63335 2.50254 8.47341C2.48793 8.31347 2.50001 8.15169 2.53809 7.99729ZM20.6035 21.3596C19.833 21.9698 18.9593 22.3722 18.0438 22.5384C17.1283 22.7047 16.1932 22.6308 15.3043 22.322L1.86505 17.6795C1.72806 17.6422 1.59893 17.5721 1.48558 17.4734C1.37223 17.3747 1.27706 17.2496 1.20591 17.1057C1.13476 16.9618 1.08913 16.8022 1.07182 16.6366C1.05451 16.471 1.06588 16.3029 1.10524 16.1427C1.1446 15.9825 1.21112 15.8336 1.30071 15.705C1.39031 15.5764 1.50108 15.471 1.62624 15.3951C1.7514 15.3192 1.88831 15.2744 2.02856 15.2636C2.1688 15.2528 2.30944 15.2761 2.44182 15.3321L9.31143 17.707L10.4985 16.2976L7.37054 15.2321C7.23799 15.1904 7.11379 15.1177 7.00519 15.0182C6.89659 14.9188 6.80578 14.7947 6.73807 14.6531C6.67036 14.5115 6.62711 14.3553 6.61084 14.1936C6.59458 14.032 6.60563 13.8681 6.64334 13.7115C6.68106 13.555 6.74469 13.409 6.83051 13.282C6.91633 13.155 7.02262 13.0496 7.14315 12.9719C7.26369 12.8943 7.39605 12.8459 7.53251 12.8298C7.66896 12.8136 7.80676 12.8299 7.93785 12.8777L12.7514 14.5106C12.9237 14.5694 13.0802 14.6805 13.2053 14.8329C13.3304 14.9854 13.4199 15.174 13.465 15.38C13.51 15.5861 13.509 15.8025 13.4621 16.008C13.4152 16.2135 13.324 16.4009 13.1975 16.5517L11.5704 18.4847L15.8768 19.9747C16.4778 20.1837 17.1101 20.2337 17.7291 20.121C18.3481 20.0083 18.9388 19.7358 19.4594 19.3226C19.6874 19.1424 19.9663 19.0772 20.2348 19.1412C20.5032 19.2053 20.7393 19.3933 20.891 19.664C21.0427 19.9346 21.0977 20.2658 21.0437 20.5845C20.9898 20.9033 20.8315 21.1836 20.6035 21.3637V21.3596Z" fill="#EEE5E9"/>
</svg>
